<svg width="250" height="250" viewBox="0 0 250 250" fill="none" xmlns="http://www.w3.org/2000/svg">
<path d="M57.5001 106.045C57.5001 106.045 44.0426 66.2248 90.9826 71.0848C137.923 75.9448 115.495 58.3198 133.233 47.3823C150.97 36.4448 203.233 70.4723 181.368 103.292C159.503 136.112 216.31 106.09 228.16 155.445C235.473 185.902 217.33 208.32 202.363 221.027" stroke="#CCDDE2" stroke-width="2" stroke-miterlimit="10"/>
<path d="M206.94 182.976C203.413 162.548 190.923 144.268 170.63 137.726C165.439 136.061 160.131 134.787 154.75 133.913V133.941C154.47 135.636 153.805 137.246 152.808 138.646C150.693 141.543 147.778 143.923 144.403 145.163C140.958 146.438 136.69 146.603 133.493 144.598C131.568 143.393 129.7 141.271 129.363 138.981C128.978 136.401 130.293 133.958 132.143 132.253C116.463 132.381 101.713 134.961 89.8925 137.898C90.3023 139.613 90.8695 141.287 91.5875 142.898C92.5923 145.144 94.012 147.18 95.7725 148.898C97.9683 146.723 99.8908 144.288 101.498 141.648C103.035 142.151 104.39 143.095 105.395 144.362C106.4 145.63 107.01 147.164 107.15 148.776V148.858C107.77 154.711 102.135 159.108 97.4 161.813C91.93 164.958 85.8325 167.313 79.8425 169.271C77.3725 170.081 74.1625 170.771 71.555 169.926C71.2743 169.836 71.0003 169.727 70.735 169.598C68.135 168.323 66.395 165.651 65.0375 163.208C61.17 156.271 58.655 148.708 56.95 140.946C45.1175 142.458 43.7625 134.446 43.06 132.481L32.9375 160.778C32.4065 162.812 32.3493 164.941 32.7695 167.001C33.19 169.06 34.0773 170.996 35.363 172.66C36.6485 174.323 38.2985 175.669 40.1858 176.595C42.0733 177.521 44.1478 178.002 46.25 178.001H88.155L107.19 226.826L112.585 240.683H143.4C140.9 240.683 139.533 240.073 138.54 239.078C137.515 238.053 136.938 236.663 136.935 235.213C136.935 232.213 139.398 229.753 143.4 229.753H143.683C143.38 229.753 143.09 229.726 142.788 229.698C142.975 229.678 143.161 229.647 143.345 229.606C143.147 229.601 142.949 229.586 142.753 229.561C144.558 229.347 146.231 228.507 147.479 227.185C148.727 225.863 149.471 224.145 149.58 222.331C149.585 222.236 149.585 222.142 149.58 222.048V221.903C149.537 220.043 148.826 218.26 147.577 216.881C146.328 215.501 144.624 214.618 142.778 214.391C142.988 214.373 143.188 214.356 143.39 214.356C143.208 214.311 143.005 214.283 142.815 214.256C143.115 214.228 143.418 214.208 143.708 214.208L166.253 214.328L170.4 214.346H175.323C175.55 214.346 175.78 214.346 175.998 214.373L183.31 214.411L188.195 214.438C190.237 214.455 192.188 215.28 193.623 216.733C195.058 218.185 195.86 220.146 195.853 222.188C195.85 223.343 195.582 224.481 195.07 225.516C197.166 225.247 199.11 224.278 200.585 222.766C204.103 219.173 205.618 213.796 206.665 209.016C208.518 200.501 208.408 191.528 206.94 182.976ZM149.98 183.551C145.733 190.088 138.5 189.501 138.5 189.501C138.5 189.501 137.9 190.086 136.5 187.596C135.1 185.106 131.113 183.403 131.113 183.403C130.795 185.903 130.138 189.703 123.613 184.778C117.088 179.853 119.055 172.673 119.613 168.881C120.17 165.088 122.393 163.831 122.393 163.831L125.018 162.446C125.018 162.446 117.425 160.493 117.06 160.421C116.695 160.348 109.933 154.686 116.795 153.191C123.658 151.696 134.355 157.641 136.423 158.816C138.49 159.991 150.573 170.211 150.573 170.211C150.573 170.211 154.25 177.023 149.98 183.551Z" fill="#353642"/>
<path d="M56.9399 140.95C56.9399 140.95 62.6624 140.255 64.8049 136.17L62.9374 146.648C62.9374 146.648 85.7024 138.898 89.8774 137.898C89.8774 137.898 91.2224 146.57 96.5774 148.898L102.102 141.873C102.102 141.873 109.03 143.623 107.135 153.063C105.24 162.503 79.0299 170.393 74.5849 170.21C70.1399 170.028 65.3549 167.293 60.4549 152.595L56.9399 140.95Z" fill="#353642"/>
<path d="M66.2625 117.61C67.7125 119.97 69.17 122.325 70.675 124.65C71.6025 126.083 73.2925 128.125 71.495 129.623C70.91 130.071 70.2035 130.333 69.4675 130.373C68.3125 130.475 67.1 130.198 66.3975 129.205L62.8975 123.405C62.2 122.249 61.0922 121.397 59.7952 121.02C58.498 120.643 57.1065 120.768 55.8975 121.37" stroke="black" stroke-width="2" stroke-miterlimit="10"/>
<path d="M79.5 125.25C80.415 127.425 79.795 128.827 78.725 129.532C76.975 130.68 74.6325 130.13 73.3925 128.455L66.275 117.622" stroke="black" stroke-width="2" stroke-miterlimit="10"/>
<path d="M72.2875 114.46C74.8775 117.61 78.145 123.46 79.9525 125.903C81.76 128.345 84.555 126.873 84.555 126.873C86.825 125.65 86.44 123.623 85.4475 121.16C83.0025 115.115 79.5125 111.095 75.62 108.46C63.5575 100.3 51.1825 106.32 47.5 120.405L32.9375 160.778C32.4065 162.812 32.3493 164.941 32.7695 167.001C33.19 169.06 34.0773 170.996 35.363 172.66C36.6485 174.323 38.2985 175.669 40.1858 176.595C42.0733 177.521 44.1478 178.002 46.25 178H88.155L112.593 240.685" stroke="black" stroke-width="2" stroke-miterlimit="10"/>
<path d="M87.25 118.388C90.25 117.348 90.1125 112.563 85.855 110.948C81.1525 109.163 72.8025 106.638 70.705 106.008C70.692 105.998 70.6763 105.992 70.66 105.99C70.5125 105.945 70.41 105.908 70.33 105.89L70.2125 105.853" stroke="black" stroke-width="2" stroke-miterlimit="10"/>
<path d="M131.575 166.23C128.95 163.075 121.765 161.287 117.075 160.422C116.287 160.274 115.568 159.874 115.027 159.282C114.486 158.69 114.152 157.938 114.075 157.14C114.021 156.601 114.083 156.057 114.258 155.545C114.537 154.758 115.073 154.088 115.779 153.642C116.484 153.196 117.32 153 118.15 153.085C126.15 153.895 134.4 156.412 140.503 161.835C140.503 161.835 170.085 184.41 173.618 186.607C175.075 187.492 176.435 186.447 175.448 185.057L175.138 184.527C173.399 181.543 171.341 178.757 169 176.217" stroke="black" stroke-width="2" stroke-miterlimit="10"/>
<path d="M132.122 132.25C94.9175 132.56 62.9375 146.645 62.9375 146.645L66.13 128.75" stroke="black" stroke-width="2" stroke-miterlimit="10"/>
<path d="M189.907 229.642C189.907 229.642 185.855 228.725 184.777 231.97C183.7 235.215 182.575 240.377 190.322 240.682C198.07 240.987 193.52 239.465 193.072 236.957C192.625 234.45 189.907 229.642 189.907 229.642Z" fill="#353642"/>
<path d="M128 170.348C128 170.348 123.628 167.033 119.69 170.393C119.524 170.539 119.38 170.707 119.26 170.893" stroke="black" stroke-width="2" stroke-miterlimit="10"/>
<g opacity="0.77">
<path opacity="0.77" d="M73.3775 128.443C74.6275 130.12 76.9675 130.668 78.71 129.518C79.7675 128.818 80.3875 127.423 79.495 125.268C79.6575 125.505 79.805 125.715 79.95 125.908C81.755 128.36 84.5525 126.883 84.5525 126.883C86.8225 125.66 86.44 123.633 85.4475 121.168C84.4763 118.726 83.202 116.416 81.655 114.293C82.6675 113.345 83.87 112.388 85.1375 112.808C86.505 113.263 86.8875 114.978 87.0425 116.408C87.115 117.073 87.1875 117.73 87.26 118.395L88.355 128.185C88.72 131.435 89.085 134.733 89.8775 137.905C90.2873 139.62 90.8545 141.294 91.5725 142.905C92.5773 145.151 93.997 147.187 95.7575 148.905C97.9533 146.73 99.8758 144.295 101.483 141.655C103.02 142.158 104.375 143.102 105.38 144.37C106.385 145.637 106.995 147.171 107.135 148.783V148.865C107.755 154.718 102.12 159.115 97.385 161.82C91.915 164.965 85.8175 167.32 79.8275 169.278C77.3575 170.088 74.1475 170.778 71.54 169.933C71.2593 169.843 70.9853 169.734 70.72 169.605C68.12 168.33 66.38 165.658 65.0225 163.215C58.5225 151.528 55.8225 138.108 54.4 124.818C57.245 124.425 60.08 123.988 62.88 123.385C62.88 123.385 62.88 123.405 62.8975 123.413L66.125 128.765L66.39 129.21C67.09 130.21 68.3025 130.478 69.46 130.378C70.196 130.341 70.903 130.079 71.485 129.628C73.28 128.128 71.595 126.093 70.665 124.66" fill="white"/>
<path opacity="0.77" d="M73.3775 128.443C74.6275 130.12 76.9675 130.668 78.71 129.518C79.7675 128.818 80.3875 127.423 79.495 125.268C79.6575 125.505 79.805 125.715 79.95 125.908C81.755 128.36 84.5525 126.883 84.5525 126.883C86.8225 125.66 86.44 123.633 85.4475 121.168C84.4763 118.726 83.202 116.416 81.655 114.293C82.6675 113.345 83.87 112.388 85.1375 112.808C86.505 113.263 86.8875 114.978 87.0425 116.408C87.115 117.073 87.1875 117.73 87.26 118.395L88.355 128.185C88.72 131.435 89.085 134.733 89.8775 137.905C90.2873 139.62 90.8545 141.294 91.5725 142.905C92.5773 145.151 93.997 147.187 95.7575 148.905C97.9533 146.73 99.8758 144.295 101.483 141.655C103.02 142.158 104.375 143.102 105.38 144.37C106.385 145.637 106.995 147.171 107.135 148.783V148.865C107.755 154.718 102.12 159.115 97.385 161.82C91.915 164.965 85.8175 167.32 79.8275 169.278C77.3575 170.088 74.1475 170.778 71.54 169.933C71.2593 169.843 70.9853 169.734 70.72 169.605C68.12 168.33 66.38 165.658 65.0225 163.215C58.5225 151.528 55.8225 138.108 54.4 124.818C57.245 124.425 60.08 123.988 62.88 123.385C62.88 123.385 62.88 123.405 62.8975 123.413L66.125 128.765L66.39 129.21C67.09 130.21 68.3025 130.478 69.46 130.378C70.196 130.341 70.903 130.079 71.485 129.628C73.28 128.128 71.595 126.093 70.665 124.66" fill="#3FBDF1"/>
<path opacity="0.77" d="M74.145 129.235C75.2525 130.735 77.145 130.545 78.71 129.518C79.655 128.893 80.43 129.075 79.6325 127.148C79.78 127.358 79.8 126.648 79.93 126.805C81.5425 128.995 79.95 125.9 79.95 125.9C82.2 128.743 87.0975 126.065 86.2 123.868C85.25 121.5 84.25 118 82.9825 116.25C83.9825 115.305 83.79 115.445 85.0625 116.198C85.4042 116.417 85.6905 116.714 85.8982 117.063C86.1062 117.412 86.23 117.805 86.26 118.21C86.3625 119.163 86.465 120.075 86.5675 121.005L87.5425 129.755C87.87 132.663 88.195 135.6 88.9025 138.43C89.2682 139.961 89.7755 141.454 90.4175 142.89C91.3125 144.868 94.1875 148.16 95.7575 149.668C97.71 147.73 100.05 144.168 101.482 141.8C104.232 142.645 104.112 145.275 104.307 148.148V148.223C104.862 153.445 99.8325 157.368 95.6175 159.785C90.7325 162.593 85.29 164.693 79.9425 166.443C77.7375 167.168 74.8725 167.793 72.545 167.028C72.294 166.949 72.049 166.851 71.8125 166.735C69.4925 165.595 67.9375 163.213 66.725 161.03C61.4175 151.498 58.955 140.675 57.6 129.825C57.5005 129.013 57.7202 128.195 58.2127 127.542C58.7052 126.889 59.432 126.453 60.24 126.325C61.7625 126.075 63.28 125.825 64.7875 125.49L64.83 125.51L67.71 130.288C68.3375 131.175 68.44 130.48 69.4725 130.39C70.125 130.333 71.39 130.205 71.895 129.783C73.4975 128.448 72.5925 127.895 71.7625 126.618" fill="#3FBDF1"/>
</g>
<path d="M127.473 175.173C127.473 175.173 119.17 172.443 119.045 177.033" stroke="black" stroke-width="2" stroke-miterlimit="10"/>
<path opacity="0.54" d="M53.155 221.929L36.8725 180.214C36.6707 179.407 36.6557 178.565 36.8282 177.751C37.001 176.937 37.357 176.173 37.869 175.517C38.3812 174.861 39.036 174.331 39.784 173.966C40.5317 173.601 41.353 173.412 42.185 173.412H106.86C108.312 173.412 109.722 173.9 110.863 174.799C112.003 175.698 112.808 176.955 113.147 178.367L130.972 220.072C131.165 220.876 131.173 221.714 130.995 222.522C130.818 223.33 130.459 224.087 129.947 224.737C129.435 225.387 128.782 225.912 128.038 226.273C127.294 226.634 126.477 226.822 125.65 226.822H59.4275C57.986 226.823 56.5857 226.342 55.4492 225.455C54.3127 224.569 53.5052 223.328 53.155 221.929Z" fill="white"/>
<path d="M130.175 182.21C130.175 182.21 131.523 183.445 131.01 185.21C130.63 186.517 129.33 187.342 128.043 186.895C123.943 185.477 120.25 183.07 119.35 178.977C118.925 176.905 118.833 174.778 119.078 172.677C119.275 170.73 119.563 168.627 120.218 166.775C121.218 163.93 124.28 161.947 127.253 163.317" stroke="black" stroke-width="2" stroke-miterlimit="10"/>
<path d="M53.155 221.929L36.8725 180.214C36.6707 179.407 36.6557 178.565 36.8282 177.751C37.001 176.937 37.357 176.173 37.869 175.517C38.3812 174.861 39.036 174.331 39.784 173.966C40.5317 173.601 41.353 173.412 42.185 173.412H106.86C108.312 173.412 109.722 173.9 110.863 174.799C112.003 175.698 112.808 176.955 113.147 178.367L130.972 220.072C131.165 220.876 131.173 221.714 130.995 222.522C130.818 223.33 130.459 224.087 129.947 224.737C129.435 225.387 128.782 225.912 128.038 226.273C127.294 226.634 126.477 226.822 125.65 226.822H59.4275C57.986 226.823 56.5857 226.342 55.4492 225.455C54.3127 224.569 53.5052 223.328 53.155 221.929Z" fill="#3FBDF1"/>
<path d="M53.155 221.929L36.8725 180.214C36.6707 179.407 36.6557 178.565 36.8282 177.751C37.001 176.937 37.357 176.173 37.869 175.517C38.3812 174.861 39.036 174.331 39.784 173.966C40.5317 173.601 41.353 173.412 42.185 173.412H106.86C108.312 173.412 109.722 173.9 110.863 174.799C112.003 175.698 112.808 176.955 113.147 178.367L130.972 220.072C131.165 220.876 131.173 221.714 130.995 222.522C130.818 223.33 130.459 224.087 129.947 224.737C129.435 225.387 128.782 225.912 128.038 226.273C127.294 226.634 126.477 226.822 125.65 226.822H59.4275C57.986 226.823 56.5857 226.342 55.4492 225.455C54.3127 224.569 53.5052 223.328 53.155 221.929Z" stroke="black" stroke-width="2" stroke-linecap="square" stroke-linejoin="round"/>
<path d="M55.5375 220.249L40.515 181.749C40.3292 181.005 40.3157 180.227 40.4752 179.477C40.6347 178.726 40.9632 178.021 41.436 177.416C41.9085 176.812 42.5127 176.322 43.2025 175.986C43.8925 175.649 44.65 175.474 45.4175 175.474H105.082C106.422 175.474 107.723 175.925 108.775 176.754C109.827 177.583 110.57 178.742 110.882 180.044L127.33 218.522C127.507 219.264 127.514 220.037 127.35 220.783C127.186 221.528 126.855 222.227 126.383 222.826C125.91 223.425 125.308 223.91 124.621 224.243C123.934 224.576 123.181 224.749 122.417 224.749H61.3225C59.9947 224.751 58.7047 224.308 57.657 223.493C56.609 222.678 55.8632 221.537 55.5375 220.249Z" fill="#3FBDF1"/>
<path d="M183.23 214.21L194.67 240.683" stroke="black" stroke-width="2" stroke-miterlimit="10"/>
<path d="M237.5 240.683H12.5" stroke="black" stroke-width="2" stroke-miterlimit="10"/>
<path d="M131.093 121.202C129.238 123.035 126.468 123.032 124.89 121.337" stroke="black" stroke-width="2" stroke-miterlimit="10"/>
<path d="M81.655 114.285C82.6675 113.337 83.87 112.38 85.1375 112.8C86.505 113.255 86.8875 114.97 87.0425 116.4C87.4808 120.33 87.9183 124.256 88.355 128.178C88.91 133.178 89.495 138.297 91.5725 142.892C92.5773 145.138 93.997 147.174 95.7575 148.892" stroke="black" stroke-width="2" stroke-miterlimit="10"/>
<path d="M107.135 148.862V148.78C106.995 147.169 106.385 145.634 105.38 144.367C104.375 143.1 103.019 142.156 101.482 141.652C99.8757 144.293 97.9532 146.727 95.7574 148.902C90.0007 154.627 82.6055 158.418 74.5975 159.75C74.9825 161.282 75.7749 162.677 76.3224 164.152C76.8699 165.627 77.1424 167.335 76.4774 168.757C75.6374 170.572 73.2274 170.335 71.5524 169.932C71.5349 169.932 71.5249 169.932 71.5074 169.932" stroke="black" stroke-width="2" stroke-miterlimit="10"/>
<path d="M62.885 123.383C60.085 123.985 57.25 124.423 54.405 124.815C55.8275 138.105 58.5175 151.525 65.0275 163.213C66.385 165.655 68.125 168.328 70.725 169.603C70.9903 169.732 71.2643 169.841 71.545 169.93C74.1525 170.788 77.3625 170.085 79.8325 169.275C85.8325 167.315 91.92 164.963 97.39 161.818C102.113 159.11 107.748 154.715 107.14 148.863C107.081 148.218 106.95 147.582 106.748 146.968" stroke="black" stroke-width="2" stroke-miterlimit="10"/>
<path d="M109.705 96.872C110.124 98.6215 111.082 100.195 112.443 101.371C113.805 102.547 115.501 103.266 117.292 103.427C117.441 102.706 117.764 102.031 118.232 101.462C120.232 99.1048 121.085 103.527 127.482 100.352C136.347 95.9423 139.712 98.4723 139.712 98.4723C140.007 98.6923 139.962 100.722 140.012 101.092C140.262 103.2 140.487 105.297 140.735 107.402C140.885 108.687 141.032 109.962 141.172 111.237C141.293 111.02 141.427 110.811 141.572 110.61C142.38 107.752 143.822 104.377 146.932 105.83C147.562 106.137 148.11 106.588 148.532 107.147C150.595 109.857 149.032 112.475 146.875 114.412C146.334 115.013 145.73 115.554 145.072 116.025C145.427 116.76 146.877 119.677 146.877 119.687C147.027 119.982 152.095 114.247 152.472 113.622C153.036 112.091 153.339 110.476 153.367 108.845C153.45 102.137 150.72 94.3295 145.287 90.482C143.94 89.5295 144.37 88.612 144.287 87.317C144.282 87.247 144.255 87.1805 144.21 87.126C144.166 87.0715 144.106 87.0318 144.039 87.012C143.971 86.9923 143.9 86.9935 143.833 87.0153C143.766 87.0373 143.708 87.0788 143.665 87.1348C141.962 89.0948 137.747 88.8998 137.747 88.8998C123.117 85.2348 118.2 91.7398 115.247 92.8998C114.043 93.356 112.717 93.378 111.497 92.9623C111.426 93.3658 111.245 93.742 110.975 94.0505C110.705 94.359 110.356 94.5878 109.965 94.7123L110.04 95.3895C110.104 95.9078 109.985 96.4318 109.705 96.872Z" fill="#3FBDF1"/>
<path d="M117.303 103.438C115.511 103.277 113.815 102.558 112.454 101.382C111.092 100.206 110.134 98.6323 109.715 96.883C109.551 96.212 109.447 95.5275 109.405 94.838L109.52 94.8255C109.677 94.8138 109.832 94.78 109.98 94.7255C110.371 94.601 110.72 94.3723 110.99 94.0638C111.26 93.7555 111.441 93.379 111.513 92.9755C111.558 92.7518 111.568 92.522 111.54 92.2955L111.165 88.9855C111.165 88.9855 113.81 90.953 116.745 89.803C119.68 88.653 124.608 82.148 139.245 85.803C139.245 85.803 142.55 85.998 144.245 84.038C144.288 83.982 144.346 83.9405 144.413 83.9188C144.48 83.8968 144.552 83.8957 144.619 83.9155C144.686 83.9352 144.746 83.975 144.791 84.0293C144.835 84.0838 144.862 84.1505 144.868 84.2205C144.955 85.518 145.435 86.4355 146.785 87.3855C152.218 91.2355 154.948 99.0405 154.863 105.748C154.838 108.531 153.913 111.278 152.485 113.636C152.108 114.261 147.04 119.996 146.89 119.701C146.89 119.701 145.44 116.773 145.085 116.038L145 115.876L145.163 115.768C145.766 115.358 146.342 114.91 146.888 114.426C149.043 112.488 150.608 109.871 148.545 107.161C148.123 106.602 147.575 106.15 146.945 105.843C143.825 104.391 142.393 107.766 141.585 110.623C141.428 111.169 141.332 111.731 141.298 112.298C141.26 111.948 141.223 111.611 141.185 111.261C141.045 109.986 140.898 108.711 140.748 107.426C140.498 105.321 140.263 103.223 140.025 101.116C139.988 100.756 140.025 98.7155 139.725 98.4955C139.725 98.4955 136.358 95.9655 127.495 100.376C121.098 103.551 120.245 99.1255 118.245 101.486C117.777 102.054 117.454 102.729 117.305 103.451C117.259 103.682 117.23 103.917 117.218 104.153C117.213 104.184 117.213 104.215 117.218 104.246C117.188 104.763 117.178 105.278 117.165 105.783C117.118 110.656 117.653 115.746 119.565 120.271C121.89 125.756 128.043 131.166 134.44 128.608C136.44 127.806 138.233 126.513 139.873 125.141" stroke="black" stroke-width="2" stroke-miterlimit="10"/>
<path d="M121.681 115.322C122.317 115.109 122.624 114.312 122.366 113.542C122.109 112.772 121.384 112.321 120.748 112.534C120.111 112.746 119.804 113.543 120.062 114.313C120.32 115.083 121.044 115.535 121.681 115.322Z" fill="black"/>
<path d="M131.199 115.017C131.836 114.804 132.143 114.007 131.885 113.237C131.627 112.467 130.903 112.016 130.266 112.229C129.63 112.442 129.323 113.238 129.581 114.008C129.838 114.778 130.563 115.23 131.199 115.017Z" fill="black"/>
<path d="M127.56 116.666C127.56 116.666 124.392 118.463 124.2 116.598C124.14 116.023 123.365 110.391 123.365 110.391C123.365 110.391 120.805 107.678 116.882 109.683" stroke="black" stroke-width="2" stroke-miterlimit="10"/>
<path d="M126.848 108.812C126.848 108.812 131.963 106.257 135.348 109.94" stroke="black" stroke-width="2" stroke-miterlimit="10"/>
<path d="M131.538 129.235L132.125 132.25C130.273 133.958 128.963 136.405 129.345 138.983C129.685 141.268 131.555 143.395 133.473 144.593C136.678 146.593 140.94 146.435 144.39 145.163C147.763 143.913 150.68 141.54 152.795 138.645C153.791 137.246 154.455 135.638 154.735 133.943V133.913" stroke="black" stroke-width="2" stroke-miterlimit="10"/>
<path d="M132.125 132.25L133.27 137.695" stroke="black" stroke-width="2" stroke-miterlimit="10"/>
<path d="M148.318 118.388L150.048 129.875C150.218 131 150.787 132.026 151.65 132.767C152.513 133.508 153.613 133.914 154.75 133.913C160.134 134.785 165.446 136.059 170.64 137.723C190.933 144.268 203.423 162.548 206.95 182.973C208.418 191.525 208.528 200.495 206.685 209C205.638 213.788 204.123 219.165 200.605 222.75C196.038 227.425 189.028 225.5 183.63 223.388C166.873 216.87 152.935 205.275 140.9 192C134.465 184.9 126.15 179.21 126.15 179.21" stroke="black" stroke-width="2" stroke-miterlimit="10"/>
<path d="M61.075 211.633C59.195 211.616 57.5575 210.098 57.135 207.986C56.3 203.831 56.08 197.406 62.1725 196.003C69.785 194.253 75.64 202.543 78.51 207.783C79.475 209.533 78.3825 211.783 76.585 211.783L61.075 211.633Z" fill="#D7E8F0"/>
<path d="M63.5883 192.475C65.2043 191.4 65.2293 188.596 63.6435 186.213C62.058 183.83 59.4625 182.77 57.8463 183.846C56.23 184.921 56.2053 187.725 57.7908 190.108C59.3765 192.491 61.972 193.551 63.5883 192.475Z" fill="#D7E8F0"/>
<path d="M188.692 229.78C188.575 229.797 188.442 229.815 188.327 229.842H188.282L170.5 229.75L143.817 229.612C143.715 229.612 143.615 229.612 143.515 229.612C143.317 229.607 143.119 229.592 142.922 229.567C144.73 229.357 146.406 228.516 147.655 227.192C148.904 225.869 149.646 224.147 149.75 222.33C149.755 222.236 149.755 222.141 149.75 222.047V221.902C149.743 220.124 149.123 218.403 147.996 217.029C146.868 215.654 145.302 214.71 143.56 214.355C143.377 214.31 143.177 214.282 142.985 214.255C143.287 214.227 143.587 214.207 143.88 214.207L166.422 214.327L170.572 214.345L176.17 214.372C178.086 214.547 179.869 215.431 181.169 216.85C182.468 218.269 183.192 220.123 183.197 222.047C183.198 222.41 183.17 222.773 183.115 223.132C182.848 224.964 181.933 226.64 180.536 227.854C179.138 229.069 177.351 229.741 175.5 229.75H189.045C188.265 229.75 188.482 229.75 188.692 229.78Z" fill="white"/>
<path d="M152.622 239.078C153.13 239.589 153.735 239.994 154.4 240.269C155.066 240.545 155.78 240.685 156.5 240.683H143.405C140.905 240.683 139.54 240.073 138.545 239.078C137.522 238.051 136.947 236.662 136.943 235.213C136.943 232.213 139.402 229.753 143.405 229.753H156.5C155.419 229.751 154.362 230.071 153.462 230.671C152.563 231.27 151.862 232.124 151.448 233.122C151.034 234.121 150.925 235.22 151.137 236.281C151.348 237.341 151.87 238.314 152.635 239.078H152.622Z" fill="#D7E8F0"/>
<path d="M195.87 222.185C195.867 223.339 195.598 224.478 195.085 225.512C194.718 226.294 194.216 227.004 193.6 227.61C192.585 228.616 191.31 229.319 189.917 229.642C189.343 229.775 188.756 229.842 188.167 229.842C188.287 229.815 188.417 229.797 188.532 229.78C188.322 229.76 188.105 229.752 188.887 229.752H175.34C177.193 229.745 178.981 229.073 180.38 227.858C181.778 226.643 182.694 224.966 182.96 223.132C183.015 222.773 183.043 222.41 183.042 222.047C183.037 220.122 182.313 218.269 181.013 216.849C179.712 215.43 177.929 214.547 176.012 214.372L183.325 214.41L188.21 214.437C190.251 214.454 192.203 215.279 193.638 216.731C195.074 218.182 195.876 220.143 195.87 222.185Z" fill="#3FBDF1"/>
<path d="M195.87 222.183C195.855 224.225 195.031 226.179 193.578 227.615C192.126 229.051 190.163 229.853 188.12 229.845L143.64 229.615C143.342 229.615 143.045 229.593 142.745 229.563C144.62 229.35 146.352 228.457 147.613 227.053C148.873 225.649 149.575 223.831 149.585 221.944C149.594 220.058 148.912 218.233 147.666 216.815C146.42 215.398 144.698 214.487 142.825 214.255C143.122 214.224 143.421 214.209 143.72 214.21L188.2 214.44C190.243 214.454 192.196 215.277 193.634 216.728C195.071 218.179 195.875 220.14 195.87 222.183Z" stroke="black" stroke-width="2" stroke-linecap="square" stroke-linejoin="round"/>
<path d="M183.038 222.045C183.034 224.087 182.221 226.045 180.776 227.489C179.332 228.933 177.375 229.746 175.333 229.75H143.685C143.386 229.748 143.087 229.731 142.79 229.7C144.664 229.477 146.391 228.575 147.644 227.165C148.897 225.754 149.589 223.933 149.589 222.046C149.589 220.159 148.897 218.338 147.644 216.927C146.391 215.517 144.664 214.615 142.79 214.392C143.088 214.365 143.388 214.345 143.685 214.345H175.333C177.374 214.349 179.33 215.162 180.774 216.605C182.218 218.048 183.032 220.004 183.038 222.045Z" stroke="black" stroke-width="2" stroke-linecap="square" stroke-linejoin="round"/>
<path d="M136.943 235.215C136.942 235.932 137.084 236.642 137.358 237.304C137.633 237.966 138.035 238.568 138.542 239.075C139.542 240.075 140.9 240.682 143.402 240.682H188.885C188.102 240.682 188.315 240.667 188.527 240.647C187.197 240.491 185.97 239.851 185.079 238.849C184.189 237.848 183.697 236.555 183.697 235.215C183.697 233.875 184.189 232.581 185.079 231.58C185.97 230.579 187.197 229.939 188.527 229.782C188.315 229.762 188.102 229.747 188.885 229.747H143.402C139.397 229.75 136.943 232.21 136.943 235.215Z" stroke="black" stroke-width="2" stroke-linecap="square" stroke-linejoin="round"/>
<path d="M151.017 235.215C151.021 236.664 151.598 238.053 152.622 239.077C153.647 240.102 155.036 240.679 156.485 240.682H187.892C188.102 240.682 188.315 240.667 188.527 240.647C187.197 240.491 185.97 239.851 185.079 238.849C184.189 237.848 183.697 236.555 183.697 235.215C183.697 233.875 184.189 232.581 185.079 231.58C185.97 230.579 187.197 229.939 188.527 229.782C188.315 229.762 188.102 229.747 187.892 229.747H156.485C155.036 229.751 153.648 230.328 152.623 231.353C151.599 232.377 151.021 233.766 151.017 235.215Z" stroke="black" stroke-width="2" stroke-linecap="square" stroke-linejoin="round"/>
<path d="M100.105 193.5H86.075C85.433 193.499 84.8052 193.311 84.2682 192.96C83.7312 192.608 83.308 192.108 83.05 191.52C82.9505 191.301 82.9077 191.061 82.9262 190.821C82.9445 190.581 83.0232 190.35 83.155 190.149C83.2867 189.948 83.4672 189.784 83.6797 189.671C83.8922 189.558 84.1295 189.501 84.37 189.505H99.285C98.5825 190.688 98.94 192.33 100.105 193.5Z" fill="#D7E8F0"/>
<path d="M109.177 192.055C109.177 192.437 109.025 192.804 108.754 193.074C108.484 193.344 108.117 193.497 107.735 193.497H100.105C98.94 192.33 98.5825 190.687 99.285 189.497H106.022C106.664 189.497 107.291 189.684 107.828 190.033C108.366 190.383 108.79 190.881 109.05 191.467C109.131 191.653 109.174 191.852 109.177 192.055Z" fill="#3FBDF1"/>
<path d="M105.667 193.5C105.628 193.576 105.582 193.649 105.53 193.717C104.53 195.085 102.357 195.217 100.67 193.982C100.47 193.835 100.282 193.674 100.105 193.5C98.94 192.332 98.5825 190.69 99.285 189.5C99.3245 189.424 99.3705 189.351 99.4225 189.282C100.422 187.905 102.585 187.782 104.272 189.007C104.476 189.159 104.667 189.327 104.845 189.507C106 190.67 106.36 192.302 105.667 193.5Z" fill="white"/>
<path d="M112.705 200.863C112.702 201.245 112.548 201.612 112.277 201.881C112.005 202.151 111.638 202.303 111.255 202.303H96.5325C97.2425 201.108 96.8875 199.478 95.72 198.303H109.55C110.192 198.303 110.82 198.49 111.358 198.841C111.895 199.192 112.319 199.692 112.577 200.28C112.66 200.463 112.703 200.662 112.705 200.863Z" fill="#3FBDF1"/>
<path d="M96.5325 202.302H89.605C88.9637 202.303 88.336 202.117 87.7985 201.767C87.261 201.417 86.8367 200.919 86.5775 200.332C86.4957 200.149 86.4525 199.951 86.45 199.75C86.4497 199.561 86.4867 199.373 86.559 199.198C86.6312 199.023 86.7372 198.865 86.871 198.731C87.0047 198.597 87.1637 198.491 87.3385 198.419C87.5135 198.346 87.7007 198.309 87.89 198.31H95.72C96.8875 199.477 97.25 201.107 96.5325 202.302Z" fill="#D7E8F0"/>
<path d="M96.5325 202.302C96.5 202.381 96.457 202.455 96.405 202.522C95.405 203.897 93.24 204.022 91.555 202.795C91.351 202.643 91.159 202.476 90.98 202.295C89.8225 201.127 89.4675 199.497 90.16 198.295C90.2 198.218 90.246 198.144 90.2975 198.075C91.2975 196.707 93.47 196.575 95.155 197.812C95.3558 197.958 95.5445 198.119 95.72 198.295C96.8875 199.477 97.25 201.107 96.5325 202.302Z" fill="white"/>
<path d="M101.438 211.045H92.6225C91.9815 211.045 91.3545 210.858 90.8173 210.509C90.2798 210.159 89.8553 209.661 89.595 209.075C89.4958 208.856 89.4535 208.615 89.472 208.375C89.4908 208.135 89.5695 207.903 89.7013 207.701C89.8333 207.5 90.0138 207.335 90.2263 207.221C90.439 207.108 90.6765 207.05 90.9175 207.053H100.618C99.9225 208.25 100.28 209.878 101.438 211.045Z" fill="#3FBDF1"/>
<path d="M115.723 209.615C115.721 209.995 115.568 210.36 115.298 210.628C115.028 210.896 114.663 211.046 114.283 211.045H101.438C100.28 209.878 99.9225 208.248 100.618 207.045H112.568C113.21 207.045 113.838 207.232 114.376 207.583C114.913 207.935 115.337 208.435 115.595 209.023C115.677 209.209 115.721 209.411 115.723 209.615Z" fill="#D7E8F0"/>
<path d="M107 211.045C106.96 211.122 106.914 211.196 106.862 211.265C105.862 212.64 103.7 212.765 102.012 211.538C101.81 211.385 101.618 211.218 101.44 211.038C100.282 209.87 99.925 208.24 100.62 207.038C100.658 206.961 100.703 206.887 100.755 206.818C101.755 205.45 103.927 205.333 105.615 206.555C105.815 206.701 106.004 206.862 106.18 207.038C107.345 208.22 107.7 209.86 107 211.045Z" fill="white"/>
<path d="M40.4025 131.343L40.6225 131.405L40.54 131.725C40.4877 131.6 40.4417 131.473 40.4025 131.343Z" fill="#353642"/>
<path d="M79.5265 151.344C82.8175 150.378 84.5465 146.397 83.3888 142.453C82.231 138.51 78.6248 136.095 75.334 137.061C72.043 138.028 70.314 142.008 71.4718 145.952C72.6295 149.896 76.2358 152.31 79.5265 151.344Z" fill="#D7E8F0"/>
</svg>
